<svg xmlns="http://www.w3.org/2000/svg" viewBox="0 0 720 405" preserveAspectRatio="xMidYMid slice">
  <defs>
    <linearGradient id="g" x1="0" y1="0" x2="1" y2="1">
      <stop offset="0%" stop-color="#0ea5e9"/>
      <stop offset="100%" stop-color="#1e3a8a"/>
    </linearGradient>
    <radialGradient id="glow" cx="0.6" cy="0.4" r="0.6">
      <stop offset="0%" stop-color="#fff" stop-opacity="0.3"/>
      <stop offset="100%" stop-color="#fff" stop-opacity="0"/>
    </radialGradient>
  </defs>
  <rect width="720" height="405" fill="url(#g)"/>
  <rect width="720" height="405" fill="url(#glow)"/>
  <g fill="#fff" opacity="0.95">
    <path d="M460 220 Q440 200 450 175 Q455 150 485 150 Q495 130 525 130 Q565 130 575 165 Q605 165 605 195 Q605 225 575 225 L470 225 Q455 225 460 220 Z"/>
  </g>
  <g stroke="#fff" stroke-width="2" fill="none" opacity="0.7">
    <path d="M530 230 L530 270"/>
    <path d="M530 270 L460 290"/>
    <path d="M530 270 L600 290"/>
    <circle cx="460" cy="295" r="14" fill="#fff" opacity="0.85"/>
    <circle cx="600" cy="295" r="14" fill="#fff" opacity="0.85"/>
  </g>
  <g fill="#fff" opacity="0.5">
    <circle cx="100" cy="120" r="2"/>
    <circle cx="140" cy="160" r="2"/>
    <circle cx="180" cy="110" r="2"/>
    <circle cx="120" cy="200" r="2"/>
  </g>
  <text x="40" y="60" font-family="Inter, system-ui, sans-serif" font-size="14" font-weight="700" fill="#fbbf24" letter-spacing="3">FLASH SALE · 52% OFF</text>
  <text x="40" y="350" font-family="Inter, system-ui, sans-serif" font-size="36" font-weight="800" fill="#fff">Cloud Architect</text>
  <text x="40" y="385" font-family="Inter, system-ui, sans-serif" font-size="20" font-weight="600" fill="#fff" opacity="0.9">Certification Track</text>
</svg>
